<?xml version="1.0" encoding="UTF-8"?>
<!DOCTYPE svg PUBLIC "-//W3C//DTD SVG 1.1//EN" "http://www.w3.org/Graphics/SVG/1.1/DTD/svg11.dtd">

<svg xmlns="http://www.w3.org/2000/svg" xmlns:xlink="http://www.w3.org/1999/xlink" xml:space="preserve" version="1.1" baseProfile="tiny" width="180" height="54" viewBox="0 0 100 30">

   <title>HXA logo</title>

   <metadata>
      <rdf:RDF
         xmlns:rdf="http://www.w3.org/1999/02/22-rdf-syntax-ns#"
         xmlns:rdfs="http://www.w3.org/2000/01/rdf-schema#"
         xmlns:dc="http://purl.org/dc/elements/1.1/">
         <rdf:Description about="http://www.hxa.name/style/hxa-logo.svg"
            dc:title="HXA logo"
            dc:creator="Harrison Ainsworth / HXA7241"
            dc:date="2010-10-10"
            dc:type="image"
            dc:format="image/svg+xml"
            dc:language="en" />
      </rdf:RDF>
   </metadata>

   <a xlink:href="http://www.hxa.name/" target="_top">

   <g fill="#000000" stroke-width="0" color-rendering="optimizeQuality" shape-rendering="geometricPrecision">
      <rect x="0" y="0" width="240" height="30" opacity="0.0" />

      <g id="_H">
         <polygon points="0,30  0,19  30,19  30,30  20,30  20,25  5,25  5,30" />
         <polygon points="0,18  0,0  5,0  5,15  10,15  10,10  20,10  20,0  30,0 30,18" />
      </g>

      <g id="_X" transform="translate(35, 0)">
         <polygon points="0,30  0,22  5,22  5,30" />
         <polygon points="20,30  20,25  10,25  10,23  30,23  30,30" />
         <polygon points="0,21  0,15  5,15  10,10  20,10  20,15  30,15  30,22  10,22  10,20  5,20  5,21" />
         <polygon points="0,10  0,0  5,0  5,10" />
         <polygon points="20,10  20,0  30,0  30,10" />
      </g>

      <g id="_A" transform="translate(70, 0)">
         <polygon points="0,30  0,22  5,22  5,30" />
         <polygon points="20,30  20,21  30,21  30,30" />
         <polygon points="0,20  0,15  5,15  5,20" />
         <polygon points="0,10  10,0  20,0  30,10  30,19  20,19  20,15  10,15  10,10" />
      </g>
   </g>

   </a>

</svg>
